<?xml version="1.0" encoding="UTF-8"?>
<svg id="Layer_1" data-name="Layer 1" xmlns="http://www.w3.org/2000/svg" viewBox="0 0 258.65 317.18">
  <defs>
    <style>
      .cls-1 {
        fill: #6faf3d;
      }

      .cls-2 {
        fill: #0546c7;
      }

      .cls-3 {
        fill: #e45c7a;
      }

      .cls-4 {
        fill: #f9f8f4;
      }

      .cls-5 {
        fill: #f5ab00;
      }
    </style>
  </defs>
  <path class="cls-4" d="M258.56,62.43v.14c-.04,1.62-.08,2.27-.1,3.91-.5,69.6-3.94,112.82-11.03,137.22,4.85,4.21,7.58,9.46,8.12,15.67.5,5.73-1.03,11.12-2.38,15.89-.9,3.17-1.75,6.18-1.88,8.74.08,1.37.29,5.13.44,9,.37,9.62.54,14.01-3.11,17.89-2.09,2.22-5.03,3.49-8.07,3.49-7.28,0-10.2-6.08-11.16-8.08-.95-1.98-2.13-4.44-5.38-6.52-1.35-.86-2.75-1.69-4.2-2.48-16.97,23.51-35.45,36.85-50.15,45.42-17.22,10.04-32.09,12.95-39.42,14.39-.28.05-.55.07-.82.07s-.56-.02-.83-.07c-7.33-1.44-22.2-4.33-39.43-14.36-14.94-8.69-33.76-22.32-50.94-46.45-2.17,1.11-4.24,2.29-6.2,3.55-3.65,2.34-4.95,5.08-5.81,6.89-2.35,4.96-5.92,7.49-10.62,7.52h-.07c-3,0-5.92-1.24-7.99-3.42-3.48-3.63-3.38-7.71-3.25-13.37.07-3.07.23-6.63.35-9.5.06-1.37.14-3.06.15-3.6-.08-2.63-.88-5.69-1.73-8.93-1.26-4.82-2.68-10.27-2.08-16.03.71-6.87,4.06-12.58,9.96-16.98C4.08,177.81.73,134.91.18,66.57c-.01-1.74-.05-2.51-.09-4.05-.31-13.42-.72-29.12,14.75-39.03C47.32,2.68,110.58.48,129.18,0h.23c18.62.47,81.88,2.63,114.37,23.41,15.48,9.9,15.08,25.6,14.78,39.02Z"/>
  <g>
    <path class="cls-1" d="M207.21,253.65c-.35-.35-.86-.38-1.24-.08-10.07,7.89-29.95,21.09-40.64,24.39-4.71,1.46-12.82.41-20.66-.61-10.46-1.35-20.33-2.63-22.77,1.67-1.69,2.98.51,8.33,6.74,16.34-3.45-.76-20.84-5.4-34.96-13.62-7.49-4.36-27.37-15.93-39.81-28.02-.34-.33-.84-.33-1.2,0-.34.31-.49.85-.13,1.3,12.18,15.31,26.21,27.64,41.7,36.65,15.49,9.01,28.88,12.62,35.48,13.97.06.01.12.02.18.02s.12,0,.19-.02c6.6-1.35,19.98-4.97,35.47-14,15.51-9.04,29.55-21.4,41.73-36.76.3-.38.27-.89-.07-1.24Z"/>
    <path class="cls-5" d="M235.95,33.1c-14.24-9.12-36.65-15.7-66.62-19.57-.63-.08-1.08.36-1.18.85-.09.48.14,1.06.77,1.22,23,5.96,48.25,16.62,48.25,20.37,0,.55-.8.87-1.47,1.04-9.71,2.51-13.57,4.26-13.78,6.22-.21,1.92,2.98,3.52,7.8,5.95,8.37,4.22,21.01,10.59,24.84,23.38,10.17,33.93,4.56,101.65,3.34,114.89-.06.66.41,1.08.91,1.14.05,0,.1,0,.15,0,.46,0,.93-.28,1.04-.87,4.41-24.3,6.68-61.33,7.12-116.54.01-1.7.05-3.38.09-5,.3-12.53.61-25.49-11.26-33.09Z"/>
    <path class="cls-3" d="M90.49,14.38c-.09-.48-.52-.93-1.18-.85-29.97,3.87-52.39,10.45-66.62,19.57-11.88,7.61-11.56,20.56-11.26,33.09.04,1.62.08,3.3.09,5,.44,55.22,2.7,92.25,7.12,116.54.11.59.58.87,1.04.87.05,0,.1,0,.15,0,.5-.07.97-.48.91-1.14-1.58-16.98-2.05-39.47-2.51-61.22l-.08-3.94c-.38-17.97,1.56-34.24,5.93-49.73,3.54-12.54,15.07-19.13,22.7-23.49,4.6-2.63,7.65-4.37,7.38-6.37-.28-2.09-4.28-3.92-14.27-6.5-.5-.13-1.35-.42-1.35-.88,0-3.57,28-13.7,51.18-19.71.63-.16.87-.74.77-1.22Z"/>
  </g>
  <path class="cls-2" d="M237.81,210.22c-30.87-19.75-90.91-21.52-108.78-21.52-12.63,0-79.29,1.82-110.16,21.59-13.59,8.71-3.41,21.03-3.09,33.93.04,1.61-1.03,19.04-.26,19.04h0c.66,0,2.14-7.28,10.56-12.67,30.87-19.77,84.35-22.83,102.22-23.31h.06c17.87.46,70.71,3.48,101.58,23.23,8.5,5.43,9.44,12.86,10.61,12.86.9,0-.27-19.24-.27-19.24.3-12.9,11.13-25.22-2.47-33.92Z"/>
  <g>
    <path class="cls-4" d="M45.41,218.83c-.7-.42-1.48-.66-2.33-.7.35-.47.6-.99.76-1.53.22-.8.2-1.63-.07-2.44-.33-.99-.87-1.81-1.61-2.42-.74-.61-1.61-1-2.59-1.15-.98-.15-2.02-.05-3.11.31l-5.49,1.82c-.42.14-.74.4-.94.78-.2.38-.23.8-.08,1.25l5.15,15.56c.14.43.41.74.8.94.22.11.45.17.69.17.18,0,.36-.03.54-.09l5.98-1.98c1.2-.4,2.2-1,2.97-1.8.78-.8,1.29-1.73,1.54-2.77.24-1.04.18-2.13-.19-3.24-.41-1.24-1.09-2.15-2-2.71ZM40.33,220.98c.66-.22,1.28-.31,1.84-.27.54.04,1.01.21,1.41.49.39.28.68.72.88,1.31.21.64.25,1.22.12,1.72-.13.52-.4.95-.81,1.33-.42.39-.96.69-1.61.91l-4.45,1.47-1.82-5.5,4.45-1.47ZM40.66,217.05c-.37.55-.96.96-1.76,1.22l-3.97,1.31-1.49-4.51,3.97-1.31c.8-.26,1.52-.29,2.14-.08.59.2,1.01.67,1.26,1.44.25.77.21,1.4-.15,1.93Z"/>
    <path class="cls-4" d="M62.67,216.49c-.31-1.36-.85-2.46-1.59-3.28-.74-.83-1.64-1.39-2.67-1.67-1.02-.28-2.11-.29-3.24-.02-1.09.25-2.03.73-2.8,1.41-.21.19-.41.4-.6.62l-1.17-5.04c-.11-.45-.34-.79-.69-1.01-.35-.22-.76-.28-1.21-.17-.44.1-.77.33-1,.68-.23.36-.29.77-.19,1.22l3.72,16.04c.1.44.34.78.7,1,.24.15.51.23.79.23.13,0,.27-.01.41-.05.46-.11.8-.34,1.01-.7.21-.36.27-.76.17-1.19l-1.54-6.65c-.12-.51-.09-.99.1-1.44.19-.46.5-.88.92-1.23.43-.36.95-.61,1.56-.75.67-.15,1.29-.17,1.86-.03.56.13,1.03.41,1.45.85.42.44.73,1.09.92,1.92l1.35,5.8c.1.44.34.78.7,1,.36.23.77.29,1.2.19.44-.1.77-.34,1-.7.23-.36.29-.77.19-1.2l-1.35-5.8Z"/>
    <path class="cls-4" d="M74.16,208.34c-.59-.26-1.38-.3-2.42-.12-1.01.18-1.91.58-2.67,1.2-.29.23-.55.5-.79.78-.11-.32-.28-.56-.51-.73-.31-.22-.71-.29-1.21-.2-.47.08-.83.29-1.05.61-.23.32-.3.72-.21,1.2l1.86,10.66c.09.49.29.85.61,1.07.22.15.49.23.8.23.12,0,.26-.01.39-.03.49-.09.85-.29,1.07-.62.21-.32.28-.72.2-1.19l-1.22-6.97c-.11-.64,0-1.19.33-1.68.34-.5.88-.9,1.59-1.19.73-.3,1.62-.44,2.6-.41.26.02.5-.02.72-.1.23-.09.42-.23.58-.42.16-.2.25-.46.26-.75.03-.42-.1-1-.94-1.36Z"/>
    <path class="cls-4" d="M89.58,213.69c.24-.3.34-.66.28-1.06-.17-1.31-.58-2.45-1.21-3.4-.63-.96-1.48-1.67-2.5-2.13-1.02-.46-2.21-.6-3.51-.43-1.32.18-2.47.64-3.41,1.37-.95.73-1.65,1.68-2.09,2.81-.44,1.12-.57,2.39-.39,3.75.18,1.35.65,2.53,1.41,3.5.75.97,1.72,1.69,2.89,2.14.8.31,1.66.47,2.57.48.41,0,.83-.02,1.25-.08.77-.1,1.57-.36,2.37-.75.8-.39,1.47-.86,1.98-1.39.41-.41.43-.83.38-1.11-.07-.38-.3-.7-.69-.96-.3-.19-.64-.27-1.01-.2-.35.06-.66.22-.93.47-.26.26-.63.51-1.09.74-.46.23-.92.38-1.38.44-.85.12-1.63.03-2.33-.25-.7-.28-1.28-.72-1.73-1.3-.21-.28-.39-.59-.53-.94l8.69-1.16c.41-.06.74-.23.98-.53ZM86.72,211.82l-7.12.95c.04-.3.1-.57.18-.83.22-.68.6-1.23,1.15-1.68.54-.44,1.24-.72,2.09-.84.21-.03.41-.04.61-.04.48,0,.92.1,1.31.29.55.27,1.01.67,1.36,1.2.17.26.31.57.44.94Z"/>
    <path class="cls-4" d="M106.15,211.34c-.12-1.33-.54-2.51-1.25-3.51-.71-1-1.63-1.78-2.73-2.3-1.1-.52-2.33-.72-3.64-.61-1.31.12-2.48.54-3.48,1.25-1,.71-1.77,1.64-2.28,2.75-.52,1.12-.72,2.35-.6,3.68.12,1.32.52,2.5,1.17,3.5.66,1,1.52,1.78,2.55,2.31.84.43,1.76.65,2.73.66.23,0,.46,0,.7-.03,1.23-.11,2.33-.53,3.26-1.24.32-.24.62-.52.9-.84v.03c.04.45.23.81.56,1.08.32.27.72.39,1.17.35.45-.04.81-.23,1.08-.55.27-.33.39-.72.35-1.17l-.49-5.38ZM102.77,213.8c-.28.66-.71,1.2-1.26,1.61-.55.41-1.21.65-1.97.72-.74.07-1.43-.05-2.05-.36-.63-.31-1.15-.76-1.55-1.36-.4-.6-.65-1.3-.72-2.09-.07-.8.04-1.55.33-2.21.29-.66.72-1.2,1.28-1.61.56-.41,1.22-.66,1.95-.72.15-.01.3-.02.44-.02.58,0,1.12.13,1.62.38.62.31,1.14.76,1.53,1.36.4.6.64,1.31.71,2.12.07.79-.04,1.52-.32,2.18Z"/>
    <path class="cls-4" d="M120.09,213.86c-.3-.22-.63-.31-1-.26-.34.05-.67.21-.96.48-.31.28-.65.49-1.03.64-.38.15-.84.23-1.37.26-.8.04-1.49-.1-2.1-.43-.61-.33-1.1-.8-1.46-1.4-.37-.61-.57-1.32-.62-2.13-.05-.86.08-1.62.37-2.26.29-.63.72-1.14,1.27-1.52.55-.37,1.22-.58,1.97-.62,1.09-.07,1.99.27,2.77,1.01.29.26.61.42.95.47.37.06.72-.04,1.01-.27.35-.28.55-.6.62-.96.05-.27.02-.68-.38-1.09-.7-.73-1.49-1.26-2.34-1.6-.85-.34-1.78-.48-2.79-.43-1.33.07-2.51.44-3.51,1.1-1,.66-1.78,1.55-2.32,2.64-.53,1.09-.77,2.34-.7,3.7.07,1.33.44,2.52,1.09,3.55.66,1.03,1.54,1.83,2.63,2.39.94.49,2,.74,3.14.75.17,0,.35,0,.53-.01,1.82-.1,3.34-.76,4.51-1.97.28-.31.4-.68.33-1.07-.06-.37-.28-.69-.63-.96Z"/>
    <path class="cls-4" d="M146.91,200.66h0c-.09-.14-.21-.27-.35-.39-.9-.81-1.82-1.4-2.73-1.78-.91-.37-2.02-.59-3.3-.65-1.37-.06-2.66.15-3.85.62-1.19.47-2.25,1.14-3.17,2.01-.91.87-1.65,1.91-2.19,3.09-.54,1.18-.85,2.49-.91,3.89-.06,1.41.13,2.75.57,3.98.44,1.23,1.08,2.34,1.92,3.28.83.95,1.84,1.71,3,2.27,1.15.56,2.42.87,3.77.93.11,0,.22,0,.34,0,1.01.01,2-.13,2.94-.42,1.04-.32,2.04-.83,2.99-1.53.17-.15.3-.33.39-.52.09-.19.14-.39.15-.6.02-.45-.09-.81-.34-1.09-.24-.27-.55-.44-.91-.48-.37-.05-.74.05-1.11.3-.67.45-1.37.8-2.08,1.04-.7.24-1.45.34-2.23.31-.9-.04-1.75-.26-2.52-.65-.78-.39-1.46-.93-2.04-1.6-.58-.67-1.02-1.44-1.32-2.31-.3-.86-.43-1.8-.39-2.78.04-.97.25-1.88.63-2.72.37-.84.88-1.57,1.52-2.19.63-.61,1.36-1.1,2.17-1.43.81-.33,1.68-.47,2.56-.44,1,.04,1.79.21,2.37.49.59.29,1.17.69,1.73,1.22.35.3.72.43,1.12.42.39-.01.73-.14,1.01-.39.3-.26.46-.59.48-1,0-.18,0-.33-.03-.45-.03-.15-.09-.3-.18-.44Z"/>
    <path class="cls-4" d="M160.41,206.05c-.87-.59-1.91-.94-3.07-1.06-1.11-.11-2.16.04-3.11.45-.26.11-.52.24-.76.39l.5-5.15c.04-.46-.07-.86-.33-1.18-.26-.32-.63-.5-1.09-.55-.44-.04-.83.07-1.16.33-.33.26-.52.63-.57,1.1l-1.59,16.39c-.04.45.07.84.34,1.17.27.33.63.52,1.08.56.46.04.86-.07,1.18-.34.32-.27.5-.63.54-1.08l.66-6.8c.05-.53.23-.96.55-1.33.33-.38.75-.67,1.27-.87.52-.2,1.09-.27,1.71-.21.68.07,1.28.25,1.77.56.48.3.85.73,1.1,1.27.25.55.34,1.26.26,2.11l-.57,5.93c-.04.45.07.84.34,1.17.27.33.63.52,1.08.56.05,0,.11,0,.16,0,.38,0,.72-.11,1.01-.35.33-.27.52-.63.56-1.08l.58-5.93c.13-1.39-.02-2.61-.46-3.62-.44-1.02-1.11-1.84-2-2.44Z"/>
    <path class="cls-4" d="M170.3,217.49l-.6-.08c-.14-.02-.35-.09-.51-.48-.15-.35-.19-.8-.12-1.33l1.67-13.11c.06-.45-.04-.84-.3-1.16-.25-.33-.61-.52-1.05-.58-.44-.05-.84.04-1.16.3-.33.25-.52.61-.58,1.05l-1.67,13.11c-.12.91-.06,1.75.18,2.5.24.76.63,1.39,1.17,1.89.55.5,1.22.81,2.04.91.12.02.24.02.36.03.41,0,.77-.08,1.08-.25.43-.24.68-.61.74-1.07.06-.44-.03-.82-.25-1.14-.23-.33-.56-.53-.98-.58Z"/>
    <path class="cls-4" d="M186.19,208.94c-.44-.07-.84.01-1.18.25-.35.24-.56.6-.63,1.06l-1.08,6.74c-.08.51-.29.93-.64,1.29-.35.37-.79.64-1.31.8-.52.17-1.1.2-1.73.1-.66-.11-1.24-.33-1.72-.67-.47-.33-.82-.78-1.03-1.35-.22-.57-.26-1.29-.13-2.11l.95-5.88c.07-.44-.02-.84-.27-1.19s-.6-.56-1.04-.63c-.45-.08-.84.02-1.19.27-.34.25-.56.6-.63,1.04l-.95,5.88c-.22,1.38-.14,2.6.23,3.64.38,1.05,1,1.91,1.84,2.56.84.64,1.84,1.06,3,1.25,1.12.18,2.18.1,3.14-.25.29-.1.57-.23.83-.38.03.26.12.51.28.73.25.34.6.56,1.04.63.1.02.19.02.28.03.34,0,.65-.09.92-.29.33-.25.54-.6.61-1.04l1.71-10.66c.07-.46-.01-.86-.25-1.2-.24-.33-.6-.54-1.06-.62Z"/>
    <path class="cls-4" d="M200.81,212.77c-.9-.83-2-1.39-3.29-1.66-1.29-.28-2.53-.22-3.69.16-1.16.38-2.17,1.04-3,1.95-.83.91-1.39,2.03-1.67,3.34-.28,1.3-.26,2.54.08,3.69.33,1.15.92,2.15,1.75,2.96.83.82,1.87,1.36,3.08,1.62,1.21.26,2.39.19,3.48-.21.38-.14.75-.32,1.1-.53v.03c-.1.44-.03.84.2,1.2.23.36.57.59,1.01.68.12.03.24.04.36.04.3,0,.58-.08.84-.25.36-.23.59-.57.68-1.01l1.14-5.28c.28-1.3.23-2.56-.15-3.73-.38-1.17-1.02-2.18-1.92-3.01ZM196.91,213.92c.74.16,1.36.48,1.86.96.5.48.85,1.07,1.06,1.75.2.69.22,1.44.05,2.23-.17.77-.49,1.44-.96,1.99-.47.54-1.03.93-1.68,1.16-.65.23-1.35.26-2.09.1-.72-.16-1.35-.48-1.85-.95-.51-.48-.87-1.07-1.08-1.76-.21-.69-.23-1.43-.06-2.21.17-.79.5-1.47.97-2.01.47-.54,1.05-.93,1.71-1.16.4-.14.82-.21,1.25-.2.27,0,.55.03.83.09Z"/>
    <path class="cls-4" d="M212.67,211.43c.14-.51.07-1.01-.2-1.48s-.66-.77-1.17-.91c-.51-.14-1.01-.07-1.48.2-.47.27-.77.66-.91,1.17-.14.51-.07,1.01.2,1.47.27.47.66.77,1.17.91.17.05.33.07.5.07.34,0,.66-.08.98-.27.47-.27.77-.66.91-1.17Z"/>
    <path class="cls-4" d="M209.9,214.21h0c-.43-.12-.84-.07-1.2.13-.37.2-.62.54-.74.99l-2.82,10.4c-.12.43-.07.84.14,1.21.21.37.54.62.97.73.16.04.31.06.46.07.28,0,.53-.07.77-.21.36-.21.6-.54.72-.97l2.82-10.4c.12-.45.08-.86-.13-1.22-.21-.36-.54-.6-.99-.72Z"/>
    <path class="cls-4" d="M226.46,222.47c-.19-1.1-.66-2.05-1.38-2.83-.71-.78-1.64-1.36-2.74-1.74-1.06-.36-2.11-.46-3.12-.28-.3.05-.6.13-.9.23.02-.27-.02-.53-.14-.78-.18-.37-.5-.64-.94-.79-.42-.14-.83-.13-1.21.05-.38.18-.65.49-.8.94l-3.5,10.22c-.15.43-.13.83.06,1.22.19.38.5.65.92.79.44.15.86.13,1.23-.06.37-.19.63-.5.78-.92l2.21-6.46c.17-.5.45-.88.85-1.17.4-.29.89-.48,1.43-.56.55-.07,1.13,0,1.71.19.65.22,1.19.54,1.6.96.4.4.66.9.78,1.49.12.6.04,1.31-.24,2.11l-1.93,5.63c-.15.43-.13.84.06,1.22.19.38.5.65.92.79.18.06.36.09.53.1.24,0,.46-.05.68-.16.38-.19.65-.5.79-.92l1.93-5.63c.45-1.32.58-2.54.39-3.63Z"/>
  </g>
  <path class="cls-2" d="M176.66,85.74c-2.38-.18-6.4.47-8.32,1-.4.11-.74-.31-.55-.68.76-1.47,2.57-3.3,3.66-6.41,2.47-7.04,5.79-11.01,6.44-11.96.05-.08.11-.33.11-.44l-.03-3.28-.74.3c-1.16.44-2.29.91-3.39,1.38-1.77.74-3.43,1.44-5.17,1.99-.33.1-.47-.06-.95-.2-5.68-1.71-12.9-4.36-26.2,7.33-.5.44-6,2.87-7.19-1.36-.3-1.07-.27-2.11-.24-3.21.02-.66.04-1.34,0-2.05-.17-2.35-1.26-4.46-3.07-5.96-2-1.64-4.67-2.39-7.34-2.07-4.6.57-8.52,1.99-12.47,3.52-7.79,3.02-15.64,5.28-23.31,6.73-12.25,2.3-33.02,2.76-44.46.97l-1.17-.18s0,1.71,1.99,3.32c.05.04.09.06.15.08,2.64.73,15.46,2.6,19.75,3.03l1.45.15c29.56,3.22,44.82-3.55,53.01-7.18.89-.4,1.68-.8,2.43-1.05,4.41-1.49,5.73,1.98,6.29,3.86.88,2.99,2.21,6.63,6.84,8.19,6.92,2.33,14.53-2.75,18.54-5.1,2.48-1.45,9.28-3.19,13.5.36.11.1.18.25.18.39-.08,4.49-3,8.22-4.53,10.24-.06.09-.09.18-.09.29l.18,6.13.09.14c.56.84,1.82.55,2.5.39l.17-.04c.31-.06.88-.26,1.74-.56,3.61-1.25,14.56-2.01,18.97,1.04,7.25,5.02,5.98,13.65,6.25,27.03.15,7.5.3,14.66,1.68,19.98.15.58-.61.94-.97.47-2.08-2.75-3.7-6.57-5.19-11.4-1.82-5.87-3.33-16.8-5.32-19.62-4.14-5.86-9.7-4.89-14.69-3.53-4.48,1.22-7.59,3.99-13.72-1.69-2.33-2.16-2.91-2.71-4.54-1.19-8.85,8.24-32.85,17.3-45.73,23.56-1.73.84-3.3,1.6-4.63,2.26,6.5-5.58,27.01-29.64,27.16-29.87s.25-.41.31-.62c.03-.12-.14-9.24-.33-9.43-.5-.49-.83-.28-2.8,1.29-2.2,1.75-10.22,8.64-17.65-2.11-.22-.32-.72-.26-.85.11-.78,2.19-.77,3.91-.78,4.3-.15,5.02,5.15,9.72,10.35,8.36.45-.12.78.4.48.75-12.2,14.4-38.76,30.9-54.89,34.79l-1.42.34s1.63,2.03,4.27,2.2c.33.04,15.93-.67,22.96-2.31.46-.11.76.46.42.78-11.24,10.59-23.37,30.99-23.47,31.11-.8,1.74.06,3.64.06,3.64l.84-.9c5.21-5.56,17.94-18.06,26.25-24.95,6.79-5.62,13.39-10.34,19.99-14.4,1.92-1.16,6.71-3.68,12.26-6.61,9.1-4.79,20.42-10.76,24.26-13.45.86-.6,1.23-.71,1.56-.81.2-.05.57.21.9.45.16.11.31.23.47.32,4.81,2.98,11.5,2.95,19.03.52,16.23-5.25,8.43,35.29,37.25,55.03,2.39,1.64,3.99,2.51,5.39,2.86,1.18.3,2.63-.08,3.6-.71-34.12-27.88,2.17-82.68-37.53-85.64Z"/>
  <g>
    <path class="cls-2" d="M109.46,176.43c-.21-2.13-1.11-3.81-2.69-4.99-1.54-1.15-3.58-1.73-6.08-1.74-1.47,0-2.61-.16-3.39-.44-.72-.27-1.23-.6-1.51-1-.29-.42-.46-.86-.51-1.34-.09-.93.21-1.61.95-2.13.83-.59,1.93-.94,3.27-1.05.75-.07,1.4-.03,1.96.11.55.15,1.05.37,1.47.68.42.3.81.7,1.14,1.18.35.49.84.8,1.45.94.64.14,1.24,0,1.75-.4.46-.37.72-.87.74-1.45.02-.55-.19-1.09-.59-1.61-.61-.81-1.31-1.5-2.09-2.07-.79-.57-1.7-.99-2.7-1.26-1-.27-2.16-.34-3.43-.21-1.61.16-3.07.55-4.34,1.18-1.31.64-2.32,1.51-3.03,2.59-.72,1.1-1.02,2.39-.87,3.84.19,1.97,1.14,3.56,2.81,4.73,1.62,1.14,3.75,1.71,6.33,1.71h.01c1.73.01,2.99.35,3.77.99.77.64,1.18,1.37,1.27,2.24.06.67-.07,1.23-.42,1.71-.37.52-.9.94-1.56,1.27-.69.34-1.48.55-2.35.64-.78.07-1.53.03-2.25-.13-.72-.16-1.35-.41-1.86-.73-.49-.3-.85-.65-1.08-1.02-.28-.48-.68-.82-1.17-1.03-.51-.22-1.03-.24-1.51-.08-.83.25-1.22.76-1.39,1.14-.27.58-.22,1.19.12,1.75.53.97,1.31,1.82,2.31,2.5.98.67,2.11,1.16,3.37,1.46.87.21,1.77.31,2.68.31.4,0,.8-.02,1.2-.06,1.12-.11,2.2-.36,3.22-.76,1.04-.4,1.96-.95,2.74-1.64.79-.7,1.41-1.54,1.83-2.49.43-.97.58-2.09.46-3.32Z"/>
    <path class="cls-2" d="M120.62,183.06c2.3-.09,4.22-.9,5.72-2.42.4-.43.57-.95.49-1.5-.08-.52-.37-.97-.85-1.33-.4-.31-.88-.45-1.39-.38-.47.06-.91.27-1.31.63-.36.32-.76.56-1.2.72-.45.17-.99.26-1.61.29-.93.04-1.74-.14-2.44-.53-.71-.4-1.26-.94-1.69-1.66-.42-.71-.65-1.56-.69-2.51-.04-1.02.12-1.91.47-2.66.35-.74.84-1.32,1.5-1.75.65-.43,1.42-.66,2.31-.7,1.27-.05,2.31.34,3.21,1.22.38.36.82.57,1.28.65.51.09,1.01-.04,1.43-.36.47-.37.76-.81.86-1.31.07-.38.05-.96-.5-1.54-.87-.92-1.85-1.61-2.92-2.05-1.07-.44-2.25-.63-3.51-.59-1.67.07-3.16.51-4.44,1.33-1.27.81-2.27,1.92-2.96,3.3-.69,1.37-1,2.93-.93,4.64.07,1.67.51,3.18,1.32,4.48.81,1.3,1.91,2.33,3.28,3.05,1.24.66,2.65,1,4.17,1,.14,0,.29,0,.44,0Z"/>
    <path class="cls-2" d="M145.5,178.86c.79-1.3,1.22-2.83,1.27-4.55.06-1.73-.28-3.3-.99-4.65-.71-1.36-1.74-2.45-3.04-3.26-1.3-.8-2.81-1.23-4.51-1.29-1.71-.07-3.26.28-4.61.99-1.35.71-2.44,1.74-3.24,3.05-.8,1.31-1.23,2.85-1.29,4.58-.06,1.71.28,3.27.99,4.62.71,1.36,1.74,2.45,3.04,3.26,1.3.8,2.82,1.23,4.54,1.29.12,0,.24,0,.36,0,1.57,0,3-.34,4.25-1,1.35-.72,2.44-1.74,3.23-3.06ZM137.8,178.92c-.9-.03-1.7-.26-2.37-.7-.68-.44-1.2-1.02-1.57-1.76-.37-.74-.55-1.61-.52-2.58.03-.97.26-1.83.69-2.56.42-.73.98-1.27,1.69-1.67.7-.39,1.51-.57,2.41-.54.9.03,1.7.26,2.37.7.68.44,1.19,1.02,1.56,1.77.37.75.54,1.63.51,2.6-.03.97-.26,1.83-.67,2.55-.41.71-.97,1.26-1.67,1.65-.71.39-1.5.56-2.41.54Z"/>
    <path class="cls-2" d="M153.49,159.65c-.72-.06-1.35.15-1.91.62-.55.47-.86,1.07-.92,1.78-.06.71.15,1.35.62,1.9s1.07.86,1.78.92c.08,0,.16,0,.23,0,.62,0,1.18-.21,1.67-.63.55-.47.86-1.07.92-1.78.06-.71-.15-1.35-.62-1.9-.47-.55-1.07-.86-1.78-.92Z"/>
    <path class="cls-2" d="M152.95,166.19c-.61-.05-1.14.11-1.58.47-.45.37-.71.88-.76,1.52l-1.08,13.17c-.05.61.12,1.15.49,1.59.37.44.89.7,1.49.75h0c.07,0,.15,0,.22,0,.54,0,1.01-.17,1.4-.51.43-.38.68-.89.72-1.49l1.08-13.17c.05-.63-.11-1.17-.48-1.61-.37-.43-.88-.68-1.51-.73Z"/>
    <path class="cls-2" d="M165.16,181.28c-.33-.45-.81-.72-1.38-.78l-.74-.08c-.08,0-.27-.03-.46-.44-.18-.39-.24-.89-.17-1.5l1.66-16.13c.06-.6-.09-1.15-.45-1.59-.35-.44-.86-.7-1.47-.76-.62-.06-1.15.09-1.59.45-.44.36-.7.86-.76,1.46l-1.66,16.13c-.12,1.16-.02,2.22.3,3.16.33.96.85,1.76,1.56,2.38.72.63,1.59,1,2.6,1.11h.06c.14.02.28.03.41.03.56,0,1.05-.13,1.48-.38.58-.34.93-.87.99-1.51.06-.6-.07-1.12-.38-1.56Z"/>
  </g>
  <g>
    <path class="cls-2" d="M110.84,237.81c-.29-.28-.68-.41-1.12-.38-.08,0-.17.02-.28.05-.09.03-.19.06-.27.1l-3.26,1.42c-.33.14-.57.36-.72.63-.14.26-.2.55-.18.86.03.43.2.79.51,1.05.31.26.68.38,1.11.35.27-.02.55-.1.84-.24l.94-.47.81,12.41c.03.42.2.77.52,1.04.29.25.62.38.98.38.03,0,.07,0,.1,0,.42-.03.79-.21,1.07-.52.28-.32.4-.69.38-1.1l-.95-14.52c-.03-.44-.19-.8-.48-1.07Z"/>
    <path class="cls-2" d="M123.44,237.52c-.83-.46-1.78-.68-2.87-.65-1.06.02-2.01.28-2.82.77-.81.49-1.45,1.17-1.9,2-.45.84-.66,1.8-.64,2.85.02,1.06.28,2.01.76,2.83.48.83,1.16,1.48,2,1.94.73.4,1.55.61,2.44.65l-2.45,4.27c-.21.34-.28.71-.2,1.08.08.36.26.66.55.89.28.22.61.33.98.33.01,0,.03,0,.04,0,.38,0,.92-.16,1.34-.84l4.7-8.22c.06-.1.12-.2.17-.31.44-.84.66-1.8.64-2.86-.02-1.06-.28-2.01-.76-2.82-.48-.82-1.15-1.47-1.98-1.92ZM120.72,239.65c.48,0,.91.1,1.28.31.39.22.69.52.91.92.22.4.34.89.36,1.44.01.54-.09,1.03-.3,1.45-.21.42-.49.74-.87.98-.38.24-.82.36-1.33.37-.52,0-.96-.1-1.34-.32-.39-.22-.69-.53-.93-.94-.23-.42-.35-.88-.37-1.43-.01-.56.09-1.04.3-1.45.21-.41.5-.72.88-.96.38-.23.83-.36,1.33-.37.02,0,.05,0,.07,0Z"/>
    <path class="cls-2" d="M133.97,236.96c-.08,0-.17,0-.28.02-.1.02-.19.04-.28.07l-3.38,1.1c-.34.11-.6.3-.78.56-.16.25-.25.53-.26.84-.01.43.12.8.41,1.09.28.29.64.44,1.07.45.27.01.56-.04.86-.16l.98-.38-.39,12.43c-.01.42.13.78.41,1.09.29.31.64.47,1.04.48h0s.04,0,.05,0c.41,0,.76-.14,1.06-.41.3-.28.47-.65.48-1.06l.45-14.54c.01-.44-.11-.81-.37-1.11-.27-.31-.63-.47-1.08-.48Z"/>
    <path class="cls-2" d="M151.03,249.37c-.27-.21-.6-.33-.99-.36l-.86-.06.69-9.41c.03-.42-.07-.79-.3-1.1-.24-.33-.59-.52-1.02-.55-.26-.02-.51.03-.73.13-.2.1-.39.23-.56.42l-8.99,10.14c-.24.28-.36.61-.36.98,0,.36.12.69.35.98.25.31.6.48,1.05.52l6.7.49-.17,2.27c-.03.41.08.78.34,1.09.26.32.6.5,1.01.53h0s.08,0,.12,0c.38,0,.72-.13.99-.38.3-.27.46-.62.49-1.03l.17-2.27.86.06c.41.03.77-.08,1.09-.32.32-.25.51-.59.54-.98.05-.65-.21-.99-.43-1.16ZM146.63,243.34l-.4,5.39-4.1-.3,4.49-5.09Z"/>
  </g>
</svg>