<?xml version="1.0" encoding="UTF-8"?>
<svg id="Layer_1" data-name="Layer 1" xmlns="http://www.w3.org/2000/svg" viewBox="0 0 485.49 616.12">
  <defs>
    <style>
      .cls-1 {
        fill: #6faf3d;
      }

      .cls-2 {
        fill: #fff;
      }

      .cls-3 {
        fill: #0546c7;
      }

      .cls-4 {
        fill: #e45c7a;
      }

      .cls-5 {
        fill: #f9f8f4;
      }

      .cls-6 {
        fill: #f5ab00;
      }
    </style>
  </defs>
  <path class="cls-5" d="M465.77,46.58C404.14,7.16,279.52.96,242.73,0,205.93.98,81.31,7.26,19.69,46.74.42,59.08-.56,79.31.16,108.77v.25s0,.16,0,.16c.08,3.38.16,6.87.19,10.37,1.09,136.42,7.79,224.27,20.94,272.56-10.65,7.43-16.67,17.11-17.89,28.8-1.02,9.78,1.44,19.2,3.82,28.3,1.75,6.7,3.41,13.04,3.56,18.96,0,.88-.16,4.28-.29,7.29-1.2,26.97-.96,30.36.7,34.33,2.24,5.36,7.73,8.98,13.66,8.98,4.2,0,8.27-1.82,11.16-4.99,1.88-2.06,2.8-4.19,3.7-6.25,1.65-3.79,4.42-10.13,12.74-15.76,4.12-2.79,8.5-5.4,13.07-7.84,35.34,54.17,75.25,85.82,106.34,103.9,30.92,17.99,57.5,25.43,70.88,28.29,13.38-2.86,40.32-10.32,71.23-28.34,31.03-18.08,70.86-49.7,106.13-103.77,4.52,2.42,8.84,4.99,12.92,7.76,8.32,5.64,11.08,11.98,12.74,15.77.9,2.06,1.83,4.18,3.7,6.24,2.89,3.18,6.96,5,11.16,5,5.93,0,11.42-3.61,13.67-8.99,1.66-3.95,1.9-7.35.7-34.32-.13-3.01-.28-6.4-.29-7.29.16-5.93,1.81-12.26,3.56-18.96,2.38-9.1,4.84-18.51,3.82-28.3-1.21-11.65-7.18-21.29-17.75-28.71,13.16-48.25,19.82-136.17,20.81-272.83.02-3.49.11-7.02.18-10.44v-.3c.7-29.48-.29-49.72-19.57-62.05Z"/>
  <g>
    <g>
      <path class="cls-1" d="M386.09,486.76c-18.99,14.87-56.47,39.77-76.6,45.99-8.76,2.71-24,.73-38.76-1.18-20.02-2.59-38.92-5.04-43.78,3.52-3.24,5.72.54,15.56,11.57,30.08-11.04-2.68-40.25-11.44-63.92-25.21-14.13-8.22-51.66-30.06-75.11-52.86-.92-.9-2.29-.91-3.27-.03-.89.8-1.28,2.25-.33,3.45,23.08,29.01,49.67,52.39,79.03,69.47,29.37,17.09,54.77,23.93,67.29,26.49.16.03.33.05.5.05s.34-.02.5-.05c12.51-2.56,37.9-9.42,67.27-26.54,29.39-17.13,56.01-40.57,79.09-69.67.79-1,.71-2.39-.19-3.3-.91-.91-2.3-1-3.31-.21Z"/>
      <path class="cls-4" d="M106.03,89.64c-.43-4.03-7.6-7.35-26.46-12.23-1.46-.38-2.37-.93-2.37-1.44,0-6.17,44.9-26.08,90.81-37.98,1.52-.39,2.09-1.78,1.86-2.94-.22-1.14-1.27-2.24-2.83-2.05-56.74,7.32-99.19,19.79-126.17,37.08-22.71,14.55-22.12,39.19-21.54,63.07.08,3.05.15,6.21.18,9.41.83,104.42,5.11,174.46,13.46,220.42.26,1.45,1.44,2.09,2.5,2.09.12,0,.24,0,.36-.02,1.17-.16,2.33-1.18,2.18-2.75-2.32-25-12.9-152.97,6.29-216.99,7.18-23.95,30.95-35.93,46.69-43.86,9.32-4.7,15.47-7.8,15.04-11.8Z"/>
      <path class="cls-6" d="M444.62,70.08c-26.98-17.28-69.43-29.76-126.17-37.08-1.53-.19-2.61.9-2.83,2.04-.22,1.16.34,2.55,1.86,2.94,45.91,11.9,90.81,31.8,90.81,37.98,0,.51-.91,1.07-2.37,1.44-18.86,4.88-26.03,8.2-26.46,12.23-.43,4,5.72,7.1,15.05,11.8,15.73,7.93,39.51,19.91,46.68,43.86,19.2,64.04,8.61,191.99,6.29,216.99-.15,1.57,1.02,2.59,2.18,2.75.12.02.24.02.36.02,1.05,0,2.23-.65,2.5-2.09,8.35-45.97,12.63-116.01,13.46-220.42.02-3.21.1-6.38.18-9.46.57-23.83,1.17-48.48-21.54-63.03Z"/>
    </g>
    <path class="cls-3" d="M332.36,161.81c-4.53-.34-12.18.89-15.83,1.9-.77.21-1.41-.59-1.04-1.29,1.45-2.81,4.89-6.28,6.97-12.2,4.7-13.39,11.02-20.94,12.25-22.76.1-.15.22-.62.22-.83l-.05-6.24-1.41.56c-2.2.83-4.36,1.74-6.44,2.62-3.36,1.41-6.53,2.75-9.84,3.78-.64.19-.89-.11-1.8-.38-10.8-3.25-24.55-8.3-49.84,13.95-.95.83-11.42,5.46-13.68-2.58-.57-2.04-.52-4.02-.45-6.12.04-1.25.08-2.55-.02-3.89-.32-4.47-2.4-8.49-5.85-11.33-3.8-3.13-8.89-4.55-13.96-3.93-8.75,1.09-16.22,3.79-23.72,6.69-14.82,5.74-29.75,10.05-44.36,12.8-23.3,4.38-62.83,5.25-84.58,1.85l-2.22-.35s-.46,4.87,4.41,6.71,29.25,4.94,37.72,5.8l2.76.29c56.49,6.16,85.64-6.78,101.3-13.73.52-.23,1.01-.46,1.49-.68,1.08-.5,2.1-.97,3.05-1.29,2.56-.86,4.72-.85,6.43.04,2.59,1.35,3.77,4.48,4.43,6.73,1.84,6.22,4.55,13.12,13.56,16.16,12.51,4.21,26.01-3.84,34.08-8.64.67-.4,1.31-.78,1.91-1.13,4.93-2.88,17.24-5.67,24.72.67-.14,8.05-5.19,14.7-8.21,18.67l-.22.3c-.24.31-.36.7-.35,1.11l.36,11.91.31.47c1.39,2.1,7.69.54,9.39-.05,6.26-2.17,27.13-3.78,35.31,1.87,11.32,7.84,11.36,20.52,11.42,39.72.01,3.46.02,7.13.1,11.02.3,14.39.58,27.99,3.22,38.2.01.04.03.13-.1.2-.13.06-.2-.02-.22-.05-3.6-4.76-6.7-11.57-9.74-21.42-1.32-4.26-2.58-10.05-3.79-15.66-2.07-9.5-4.02-18.47-6.45-21.92-8.16-11.54-19.18-9.69-28.87-7.05-1.46.4-2.82.86-4.14,1.31-6.42,2.2-11.49,3.93-21.17-4.35,0,0-6.01-5.33-9.79-2.24-13,10.63-39.68,23.56-63.85,34.25-8.46,3.74-16.46,7.28-22.94,10.43l-.15.07c-1.2.58-2.36,1.15-3.47,1.69,15.43-15.17,47.37-52.74,47.57-53.02.37-.54.58-.96.71-1.46.04-.14-.01-17.94-.86-18.78-1.54-1.52-6.85,2.69-6.85,2.69-2.89,2.31-9.64,7.7-17.48,6.55-5.24-.77-10.11-4.36-14.47-10.68-.38-.56-1.04-.85-1.7-.76,0,0-2.78.58-2.96,10.23-.18,9.55,10.07,18.47,19.96,15.87.85-.22,1.48.75.91,1.42-23.22,27.4-73.75,58.78-104.42,66.19l-2.7.65s3.09,3.86,8.12,4.18c.63.08,30.31-1.27,43.69-4.39.87-.2,1.45.88.8,1.49-21.39,20.16-44.47,58.96-44.65,59.18-1.52,3.31.11,6.93.11,6.93l1.6-1.71c9.91-10.57,34.14-34.36,49.95-47.46,12.92-10.7,25.47-19.67,38.03-27.4,3.64-2.2,12.77-7.01,23.33-12.57,17.31-9.12,38.85-20.47,46.15-25.58,1.63-1.14,2.34-1.36,2.97-1.55.39-.09,1.09.41,1.71.86.3.21.59.43.89.61,9.15,5.67,21.88,5.62,36.2.99,30.89-9.98,16.03,67.14,70.88,104.7,4.55,3.12,7.59,4.77,10.26,5.44,2.24.57,5.01-.14,6.85-1.35-64.92-53.04,4.12-157.3-71.41-162.94Z"/>
    <g>
      <path class="cls-3" d="M209.76,459.4c-.55-.52-1.29-.77-2.13-.71-.15,0-.33.04-.52.09-.18.05-.36.12-.51.19l-6.18,2.69c-.63.27-1.09.67-1.36,1.2-.27.5-.38,1.05-.34,1.63.05.82.38,1.49.97,1.99.58.49,1.28.71,2.1.66.51-.03,1.04-.19,1.59-.45l1.79-.9,1.54,23.54c.05.79.38,1.46.98,1.98.55.48,1.17.72,1.85.72.06,0,.13,0,.19,0,.81-.05,1.5-.39,2.02-.98.53-.6.77-1.3.71-2.09l-1.81-27.52c-.05-.83-.36-1.51-.9-2.03Z"/>
      <path class="cls-3" d="M233.64,458.84c-1.58-.86-3.37-1.3-5.44-1.23-2.01.04-3.8.53-5.34,1.46-1.54.93-2.75,2.21-3.6,3.8-.85,1.59-1.25,3.41-1.21,5.41.04,2,.52,3.81,1.43,5.37.92,1.57,2.19,2.81,3.78,3.67,1.38.75,2.93,1.16,4.62,1.23l-4.65,8.1c-.4.65-.53,1.34-.38,2.05.15.69.5,1.26,1.05,1.69.53.42,1.16.63,1.86.63.03,0,.05,0,.08,0,.72-.01,1.75-.3,2.54-1.59l8.91-15.59c.12-.19.23-.38.33-.58.84-1.6,1.25-3.42,1.21-5.42-.04-2-.53-3.81-1.44-5.35-.92-1.55-2.18-2.78-3.76-3.65ZM228.48,462.89c.91,0,1.72.2,2.42.59.74.41,1.3.98,1.72,1.74.43.76.65,1.68.68,2.74.02,1.03-.17,1.95-.56,2.75-.39.79-.93,1.4-1.65,1.85-.72.46-1.55.69-2.52.71-.98.01-1.81-.18-2.54-.61-.74-.43-1.32-1.01-1.75-1.79-.44-.79-.67-1.68-.69-2.71-.02-1.05.17-1.98.58-2.76.4-.78.95-1.37,1.67-1.82.72-.44,1.57-.67,2.52-.69.04,0,.09,0,.13,0Z"/>
      <path class="cls-3" d="M253.62,457.78c-.16-.01-.33,0-.53.04-.18.03-.37.08-.53.14l-6.41,2.08c-.65.21-1.14.56-1.47,1.07-.31.47-.48,1.01-.5,1.59-.03.82.23,1.52.77,2.07.53.54,1.21.84,2.02.86.5.03,1.05-.08,1.63-.3l1.86-.72-.74,23.58c-.02.79.24,1.49.79,2.06.54.58,1.21.89,1.97.91h0s.07,0,.1,0c.78,0,1.45-.26,2-.78.57-.54.89-1.23.91-2.01l.86-27.57c.03-.83-.21-1.54-.7-2.1-.51-.58-1.2-.89-2.05-.91Z"/>
      <path class="cls-3" d="M285.96,481.31c-.51-.4-1.14-.63-1.87-.68l-1.62-.12,1.32-17.85c.06-.79-.14-1.49-.58-2.08-.46-.62-1.13-.98-1.93-1.04-.5-.04-.96.05-1.38.25-.39.18-.74.44-1.06.79l-17.05,19.24c-.46.53-.68,1.16-.68,1.86,0,.69.23,1.32.67,1.87.47.58,1.14.91,2,.98l12.7.94-.32,4.3c-.06.78.16,1.47.64,2.07.49.6,1.15.95,1.91,1.01h0c.08,0,.16,0,.24,0,.72,0,1.37-.25,1.88-.72.56-.52.88-1.18.94-1.96l.32-4.3,1.62.12c.77.05,1.46-.15,2.06-.61.61-.47.96-1.12,1.02-1.86.09-1.23-.39-1.88-.81-2.21ZM277.62,469.88l-.75,10.22-7.77-.57,8.52-9.65Z"/>
    </g>
    <g>
      <path class="cls-3" d="M200.02,320.04h0c-2.97-2.27-6.94-3.47-11.81-3.55-2.82-.05-5-.36-6.48-.93-1.36-.52-2.31-1.16-2.81-1.91-.54-.79-.84-1.62-.92-2.52-.15-1.73.43-2.98,1.82-3.94,1.59-1.09,3.69-1.74,6.26-1.92,1.42-.12,2.67-.03,3.72.26,1.04.29,1.98.73,2.77,1.31.8.58,1.51,1.34,2.13,2.27.69.99,1.65,1.63,2.87,1.91,1.27.29,2.49.03,3.52-.75.95-.73,1.47-1.74,1.52-2.91.05-1.09-.34-2.18-1.13-3.23-1.16-1.59-2.52-2.96-4.02-4.08-1.52-1.13-3.29-1.98-5.24-2.53-1.94-.55-4.19-.72-6.68-.5-3.13.26-5.99,1-8.47,2.19-2.56,1.22-4.58,2.9-5.98,4.98-1.45,2.14-2.05,4.67-1.81,7.51.32,3.85,2.13,6.99,5.38,9.34,3.12,2.25,7.24,3.43,12.24,3.5h.08c3.3.07,5.7.73,7.15,1.97,1.43,1.22,2.19,2.62,2.33,4.26.11,1.25-.16,2.29-.81,3.17-.72.97-1.72,1.76-2.99,2.36-1.33.63-2.85,1.02-4.5,1.15-1.47.12-2.92.02-4.29-.31-1.37-.33-2.55-.81-3.53-1.43-.92-.59-1.6-1.25-2.01-1.95-.56-.96-1.34-1.67-2.32-2.1-1.02-.44-2.06-.51-3.03-.2-1.67.48-2.46,1.49-2.82,2.25-.55,1.16-.47,2.39.19,3.52,1.01,1.92,2.51,3.59,4.45,4.95,1.89,1.33,4.09,2.32,6.52,2.93,1.68.43,3.41.65,5.19.68.78.01,1.57-.02,2.36-.08,2.18-.19,4.29-.65,6.29-1.39,2.03-.76,3.84-1.81,5.38-3.12,1.57-1.35,2.79-2.97,3.63-4.83.86-1.9,1.19-4.08.99-6.49-.35-4.18-2.08-7.48-5.13-9.82Z"/>
      <path class="cls-3" d="M238.26,333.41c-.8-.65-1.77-.94-2.78-.83-.94.1-1.83.5-2.66,1.19-.69.58-1.46,1.02-2.29,1.3-.85.29-1.89.45-3.08.46-1.78.04-3.28-.34-4.6-1.12-1.33-.79-2.35-1.84-3.12-3.22-.76-1.38-1.17-3-1.19-4.81-.03-1.93.32-3.63,1.02-5.03.7-1.39,1.66-2.45,2.92-3.24,1.25-.78,2.74-1.18,4.41-1.21,2.38-.08,4.36.76,6.02,2.47.75.73,1.6,1.18,2.53,1.36,1.04.2,2.04-.03,2.9-.66.96-.72,1.56-1.59,1.78-2.59.17-.78.14-1.95-.94-3.15-1.65-1.84-3.53-3.24-5.6-4.16-2.07-.91-4.36-1.36-6.82-1.32-3.26.05-6.2.84-8.72,2.36-2.53,1.52-4.53,3.64-5.95,6.29-1.41,2.64-2.11,5.66-2.06,9,.05,3.26.84,6.22,2.36,8.8,1.52,2.58,3.62,4.64,6.24,6.12,2.46,1.39,5.26,2.11,8.32,2.16.2,0,.41,0,.62,0,4.49-.07,8.27-1.55,11.28-4.44.83-.86,1.2-1.9,1.05-3.01-.14-1.04-.69-1.96-1.64-2.72Z"/>
      <path class="cls-3" d="M271.05,311.86h0c-2.53-1.57-5.48-2.43-8.78-2.55-3.34-.11-6.36.52-9,1.91-2.64,1.38-4.77,3.38-6.35,5.93-1.57,2.55-2.43,5.55-2.55,8.92-.12,3.33.52,6.37,1.9,9.02,1.39,2.66,3.37,4.81,5.9,6.38,2.52,1.57,5.5,2.43,8.84,2.55.16,0,.31,0,.47.01,3.15.05,6.02-.6,8.53-1.92,2.64-1.39,4.77-3.39,6.33-5.94,1.55-2.55,2.39-5.52,2.51-8.85.12-3.37-.52-6.43-1.9-9.08-1.39-2.66-3.37-4.8-5.9-6.38ZM261.31,335.98c-1.71-.06-3.22-.51-4.49-1.34-1.29-.84-2.26-1.94-2.98-3.35-.71-1.41-1.03-3.06-.96-4.91.07-1.85.51-3.49,1.32-4.86.81-1.38,1.86-2.41,3.21-3.15,1.28-.71,2.69-1.04,4.33-1.02.08,0,.16,0,.25,0,1.71.06,3.23.51,4.49,1.34,1.28.83,2.24,1.93,2.93,3.36.69,1.43,1.01,3.1.95,4.96-.07,1.85-.5,3.48-1.29,4.84-.79,1.36-1.83,2.38-3.17,3.12-1.34.74-2.84,1.08-4.58,1.01Z"/>
      <g>
        <path class="cls-3" d="M292.03,311.31h0c-1.2-.09-2.3.24-3.17.97-.89.74-1.41,1.79-1.51,3.05l-1.96,25.46c-.09,1.21.26,2.32,1.01,3.2.75.88,1.79,1.39,3.01,1.49.11,0,.22.01.32.01,1.13.02,2.13-.34,2.92-1.04.85-.76,1.35-1.79,1.44-2.99l1.96-25.46c.1-1.27-.23-2.35-.98-3.23-.75-.87-1.77-1.36-3.03-1.46Z"/>
        <path class="cls-3" d="M293,298.67h0c-1.41-.1-2.7.31-3.79,1.25-1.1.94-1.71,2.14-1.82,3.56-.11,1.42.31,2.7,1.25,3.8.94,1.1,2.14,1.71,3.56,1.82.12,0,.23.01.35.02,1.28.02,2.44-.41,3.44-1.27,1.1-.94,1.71-2.14,1.82-3.56.11-1.42-.31-2.7-1.25-3.79-.94-1.1-2.14-1.71-3.56-1.82Z"/>
      </g>
      <path class="cls-3" d="M315.49,340.4h0c-.65-.93-1.61-1.48-2.77-1.61l-1.42-.16c-.13-.01-.43-.05-.74-.75-.32-.73-.42-1.68-.29-2.82l3.54-31.13c.14-1.21-.16-2.31-.87-3.2-.71-.89-1.72-1.43-2.93-1.57-1.21-.14-2.32.16-3.2.87-.89.71-1.43,1.72-1.57,2.93l-3.53,31.13c-.26,2.25-.08,4.33.53,6.18.62,1.9,1.63,3.48,3.01,4.71,1.41,1.26,3.12,2.01,5.2,2.24.27.03.54.05.8.05,1.12.02,2.12-.22,2.97-.72,1.18-.68,1.88-1.72,2.03-3.02.13-1.19-.11-2.24-.73-3.12Z"/>
    </g>
    <g>
      <path class="cls-3" d="M453.16,400.12c-58.64-37.56-184.9-41.21-209.99-41.25-.07,0-.24,0-.41,0s-.34,0-.41,0c-25.09.04-151.38,3.69-210.02,41.25-25.96,16.63-6.51,40.17-5.91,64.81.07,2.95-1.79,33.51-.67,36.19.03.08.34.39.75.39.24,0,.52-.1.81-.42,1.49-1.64,4.05-14,18.79-23.99,63.59-43.1,180.46-44.51,195.12-44.51.98,0,1.51,0,1.52,0,.02,0,.54,0,1.52,0,14.67,0,131.53,1.41,195.12,44.51,14.74,9.99,17.3,22.35,18.79,23.99.29.31.57.42.81.42.42,0,.72-.31.75-.39,1.12-2.68-.74-33.24-.67-36.19.6-24.65,20.05-48.18-5.91-64.81Z"/>
      <g>
        <path class="cls-2" d="M83.33,420.58c-1.36-.81-2.87-1.25-4.51-1.32.67-.92,1.15-1.92,1.43-2.98.42-1.56.36-3.15-.18-4.72-.66-1.92-1.72-3.48-3.16-4.65-1.44-1.16-3.13-1.9-5.03-2.18-1.89-.27-3.92-.05-6.02.67l-10.6,3.62c-.82.28-1.43.8-1.8,1.53-.38.75-.43,1.56-.14,2.42l10.26,30.02c.28.82.81,1.43,1.57,1.8.43.21.88.32,1.34.32.34,0,.69-.06,1.05-.18l11.53-3.94c2.31-.79,4.23-1.98,5.71-3.54,1.49-1.57,2.47-3.38,2.92-5.39.45-2.01.3-4.12-.43-6.27-.82-2.39-2.14-4.14-3.93-5.21ZM73.55,424.85c1.27-.43,2.47-.62,3.55-.55,1.05.07,1.97.38,2.73.93.75.54,1.33,1.39,1.72,2.52.42,1.23.51,2.35.26,3.34-.25,1-.75,1.85-1.54,2.59-.8.75-1.84,1.36-3.1,1.79l-8.58,2.93-3.63-10.61,8.59-2.93ZM74.11,417.24c-.71,1.06-1.85,1.87-3.38,2.39l-7.65,2.62-2.97-8.7,7.65-2.62c1.54-.52,2.93-.59,4.14-.19,1.15.38,1.96,1.28,2.47,2.77.51,1.49.43,2.71-.25,3.73Z"/>
        <path class="cls-2" d="M116.7,415.71c-.64-2.62-1.69-4.75-3.14-6.32-1.46-1.59-3.2-2.66-5.2-3.19-1.97-.52-4.09-.51-6.28.02-2.11.51-3.92,1.45-5.39,2.79-.41.37-.79.78-1.14,1.21l-2.36-9.73c-.21-.88-.67-1.53-1.35-1.95-.68-.42-1.47-.52-2.35-.31-.84.2-1.48.65-1.92,1.33-.44.69-.55,1.49-.34,2.37l7.51,30.97c.21.85.66,1.49,1.37,1.92.47.29.99.43,1.53.43.26,0,.52-.03.8-.1.88-.21,1.54-.68,1.95-1.38.41-.7.51-1.48.31-2.32l-3.12-12.85c-.24-.99-.19-1.91.16-2.8.35-.9.95-1.71,1.76-2.4.82-.7,1.83-1.19,3-1.47,1.29-.31,2.5-.35,3.6-.1,1.08.24,2.01.77,2.83,1.62.81.85,1.43,2.09,1.82,3.7l2.72,11.2c.2.85.66,1.49,1.37,1.92.71.43,1.49.55,2.33.33.84-.21,1.49-.67,1.92-1.37.43-.7.54-1.49.34-2.33l-2.72-11.2Z"/>
        <path class="cls-2" d="M138.77,399.73c-1.16-.49-2.68-.55-4.68-.18-1.95.36-3.68,1.16-5.14,2.37-.55.46-1.06.97-1.51,1.53-.21-.62-.55-1.09-1.01-1.4-.61-.42-1.39-.54-2.34-.36-.92.17-1.6.57-2.02,1.19-.43.63-.56,1.41-.39,2.32l3.81,20.6c.17.95.58,1.64,1.21,2.06.44.29.96.43,1.55.43.24,0,.49-.02.76-.07.95-.18,1.64-.58,2.06-1.21.41-.62.53-1.39.36-2.3l-2.49-13.46c-.23-1.24-.03-2.31.61-3.25.65-.97,1.68-1.76,3.06-2.33,1.41-.59,3.12-.88,5.03-.84.51.03.97-.05,1.39-.2.44-.17.81-.44,1.11-.82.31-.4.47-.9.49-1.45.06-.81-.21-1.93-1.84-2.62Z"/>
        <path class="cls-2" d="M168.72,409.78c.46-.59.64-1.28.53-2.06-.36-2.53-1.17-4.74-2.41-6.56-1.25-1.84-2.89-3.21-4.89-4.08-1.99-.87-4.29-1.12-6.81-.76-2.55.36-4.77,1.28-6.58,2.72-1.82,1.44-3.16,3.28-3.99,5.47-.83,2.18-1.06,4.63-.68,7.27.38,2.62,1.31,4.88,2.79,6.74,1.48,1.86,3.37,3.23,5.63,4.08,1.55.59,3.22.88,4.99.88.79,0,1.6-.06,2.43-.18,1.49-.22,3.03-.72,4.57-1.5,1.55-.78,2.83-1.7,3.81-2.73.78-.8.82-1.61.71-2.15-.15-.73-.6-1.35-1.36-1.85-.59-.37-1.25-.5-1.96-.38-.67.12-1.27.43-1.79.94-.5.5-1.21.99-2.09,1.46-.88.46-1.77.76-2.65.89-1.63.24-3.15.09-4.51-.45-1.35-.53-2.49-1.37-3.37-2.49-.42-.53-.77-1.14-1.05-1.81l16.8-2.41c.8-.11,1.43-.47,1.89-1.05ZM163.14,406.22l-13.77,1.98c.06-.57.18-1.1.34-1.6.42-1.33,1.14-2.4,2.18-3.28,1.04-.87,2.39-1.42,4.02-1.66.4-.06.8-.09,1.17-.09.94,0,1.79.18,2.54.53,1.07.5,1.96,1.28,2.65,2.3.34.5.62,1.09.87,1.81Z"/>
        <path class="cls-2" d="M200.75,404.9c-.26-2.56-1.1-4.84-2.49-6.78-1.39-1.93-3.19-3.41-5.33-4.4-2.14-.99-4.52-1.35-7.05-1.1-2.53.26-4.79,1.09-6.71,2.49-1.92,1.4-3.39,3.2-4.37,5.37-.98,2.17-1.35,4.57-1.09,7.14.26,2.56,1.05,4.83,2.34,6.75,1.3,1.93,2.97,3.41,4.99,4.42,1.64.81,3.41,1.22,5.3,1.22.44,0,.9-.02,1.35-.07,2.39-.24,4.5-1.07,6.28-2.46.62-.48,1.62-1.58,2.07-2.12.06.45.11,2.11.75,2.63.63.52,1.4.74,2.27.66.87-.09,1.57-.46,2.09-1.09.52-.64.74-1.4.66-2.26l-1.05-10.4ZM194.26,409.73c-.53,1.28-1.35,2.33-2.41,3.14-1.06.81-2.34,1.29-3.79,1.44-1.42.15-2.76-.08-3.98-.66-1.22-.58-2.24-1.46-3.03-2.6-.79-1.15-1.27-2.5-1.43-4.03-.16-1.56.04-3,.59-4.28.55-1.28,1.38-2.34,2.46-3.15,1.08-.81,2.35-1.29,3.77-1.43.29-.03.58-.05.86-.05,1.13,0,2.18.23,3.14.7,1.21.58,2.21,1.46,2.99,2.6.78,1.15,1.25,2.52,1.41,4.08.15,1.53-.04,2.95-.58,4.23Z"/>
        <path class="cls-2" d="M227.77,409.51c-.58-.43-1.23-.59-1.93-.48-.66.1-1.29.42-1.86.95-.59.55-1.25.97-1.98,1.25-.74.29-1.63.47-2.65.53-1.54.1-2.89-.17-4.07-.79-1.18-.62-2.14-1.53-2.86-2.68-.72-1.16-1.14-2.55-1.24-4.11-.11-1.66.12-3.13.68-4.38.55-1.23,1.37-2.23,2.43-2.96,1.06-.74,2.34-1.16,3.8-1.25,2.1-.15,3.85.48,5.37,1.9.56.49,1.19.79,1.85.89.72.11,1.39-.08,1.95-.54.66-.55,1.06-1.18,1.18-1.88.09-.52.03-1.31-.75-2.1-1.37-1.39-2.9-2.42-4.55-3.06-1.65-.63-3.46-.9-5.4-.78-2.57.16-4.85.9-6.77,2.19-1.93,1.29-3.42,3.03-4.43,5.16-1.01,2.13-1.44,4.54-1.28,7.17.16,2.57.9,4.87,2.19,6.84,1.29,1.97,3.02,3.51,5.14,4.57,1.84.92,3.88,1.39,6.09,1.39.34,0,.68-.01,1.03-.03,3.53-.22,6.45-1.53,8.68-3.89.54-.61.76-1.33.63-2.08-.13-.71-.55-1.33-1.25-1.84Z"/>
        <path class="cls-2" d="M279.41,383.44h0c-.17-.27-.41-.53-.69-.75-1.75-1.54-3.54-2.68-5.31-3.38-1.78-.71-3.93-1.11-6.4-1.19-2.66-.09-5.15.34-7.44,1.27-2.29.92-4.34,2.25-6.09,3.95-1.75,1.7-3.16,3.73-4.18,6.03-1.03,2.3-1.59,4.84-1.68,7.54-.09,2.73.3,5.32,1.18,7.7.87,2.38,2.14,4.5,3.78,6.32,1.63,1.81,3.6,3.27,5.84,4.33,2.24,1.06,4.7,1.64,7.31,1.73.22,0,.43.01.65.01,1.96,0,3.87-.29,5.68-.87,2-.64,3.92-1.64,5.77-3.01.32-.3.57-.64.74-1.01.17-.37.27-.76.28-1.17.03-.86-.2-1.57-.68-2.11-.47-.52-1.07-.84-1.78-.92-.71-.08-1.43.11-2.14.6-1.29.89-2.64,1.58-4.01,2.05-1.36.47-2.81.68-4.3.63-1.74-.06-3.39-.46-4.89-1.21-1.51-.74-2.85-1.77-3.98-3.05-1.13-1.28-2-2.77-2.6-4.44-.6-1.66-.87-3.47-.81-5.38.06-1.87.45-3.64,1.16-5.27.71-1.63,1.68-3.06,2.89-4.26,1.21-1.2,2.61-2.15,4.17-2.81,1.55-.65,3.24-.95,4.95-.9,1.93.06,3.48.37,4.6.9,1.15.54,2.27,1.32,3.36,2.32.68.56,1.41.82,2.17.8.75-.03,1.41-.29,1.96-.77.58-.5.89-1.16.91-1.94.01-.34,0-.63-.06-.88-.05-.29-.17-.57-.35-.85Z"/>
        <path class="cls-2" d="M305.65,393.6c-1.7-1.12-3.71-1.79-5.96-1.99-2.16-.19-4.18.13-6,.93-.51.22-1,.48-1.46.78l.86-9.97c.08-.89-.14-1.66-.66-2.28-.52-.61-1.23-.96-2.13-1.04-.84-.07-1.61.14-2.24.65-.63.51-1,1.23-1.07,2.13l-2.75,31.75c-.08.86.15,1.62.68,2.25.53.63,1.24.99,2.11,1.06.9.07,1.67-.15,2.29-.69.61-.53.96-1.24,1.03-2.1l1.14-13.18c.09-1.02.43-1.87,1.04-2.59.63-.74,1.45-1.32,2.44-1.71,1-.4,2.11-.54,3.31-.44,1.32.11,2.48.47,3.44,1.05.94.57,1.67,1.39,2.16,2.44.5,1.06.68,2.44.54,4.08l-1,11.49c-.08.86.15,1.62.68,2.26.53.63,1.24.99,2.11,1.06.11,0,.21.01.31.01.74,0,1.39-.23,1.94-.7.63-.53.99-1.24,1.06-2.1l1-11.48c.23-2.69-.09-5.04-.96-7-.87-1.97-2.19-3.54-3.91-4.68Z"/>
        <path class="cls-2" d="M325.02,415.56l-1.16-.14c-.27-.03-.68-.16-1-.91-.3-.68-.39-1.54-.27-2.57l2.98-25.41c.1-.86-.1-1.62-.6-2.25-.5-.63-1.19-1-2.05-1.1-.85-.1-1.62.1-2.25.6-.63.5-1,1.19-1.1,2.05l-2.98,25.41c-.21,1.77-.08,3.39.39,4.84.47,1.46,1.25,2.68,2.3,3.63,1.07.96,2.37,1.54,3.96,1.72.24.03.47.04.69.04.78,0,1.48-.17,2.08-.51.82-.47,1.31-1.19,1.41-2.08.1-.85-.07-1.59-.5-2.21-.45-.64-1.09-1.02-1.91-1.11Z"/>
        <path class="cls-2" d="M355.93,398.69c-.86-.13-1.62.04-2.28.51-.66.47-1.07,1.16-1.2,2.06l-1.97,13.07c-.15.98-.55,1.8-1.21,2.51-.67.72-1.52,1.25-2.52,1.58-1,.33-2.13.41-3.35.23-1.28-.19-2.41-.62-3.35-1.27-.91-.63-1.59-1.5-2.02-2.59-.43-1.11-.53-2.48-.29-4.09l1.72-11.4c.13-.86-.05-1.63-.54-2.29s-1.17-1.06-2.03-1.19c-.87-.14-1.63.05-2.29.54-.66.49-1.06,1.17-1.19,2.03l-1.72,11.4c-.4,2.67-.23,5.03.52,7.04.75,2.02,1.96,3.68,3.61,4.91,1.63,1.23,3.59,2.02,5.82,2.36,2.17.33,4.22.14,6.07-.55.56-.21,1.3-.63,1.89-1.1-.07.56-.04,1.34.28,1.77.49.66,1.17,1.06,2.03,1.19.19.03.37.04.55.04.67,0,1.26-.2,1.77-.59.64-.49,1.03-1.17,1.16-2.03l3.11-20.67c.14-.89-.04-1.67-.52-2.31-.48-.64-1.17-1.04-2.06-1.17Z"/>
        <path class="cls-2" d="M384.95,405.59c-1.75-1.58-3.9-2.64-6.4-3.16-2.5-.51-4.9-.39-7.15.37-2.25.76-4.19,2.05-5.77,3.82-1.59,1.78-2.65,3.96-3.17,6.49-.52,2.52-.44,4.92.22,7.14.66,2.23,1.82,4.14,3.44,5.7,1.63,1.56,3.65,2.6,6,3.08,2.35.48,4.68.46,6.73-.47.7-.32,1.91-1.47,2.4-1.97l-.35,1.08c-.18.85.03,1.54.48,2.23.45.69,1.11,1.13,1.96,1.3.24.05.47.07.69.07.58,0,1.13-.16,1.63-.49.69-.45,1.13-1.11,1.3-1.97l2.1-10.24c.52-2.52.4-4.95-.36-7.21-.75-2.26-2.02-4.2-3.77-5.78ZM377.43,407.89c1.43.29,2.65.9,3.62,1.82.98.91,1.67,2.05,2.08,3.37.4,1.33.45,2.78.13,4.32-.31,1.5-.92,2.8-1.81,3.87-.89,1.06-1.98,1.83-3.24,2.28-1.25.45-2.61.53-4.04.24-1.4-.29-2.61-.9-3.6-1.81-.99-.92-1.71-2.06-2.12-3.38-.42-1.33-.47-2.77-.16-4.27.31-1.53.93-2.85,1.84-3.91.9-1.06,2.01-1.82,3.28-2.27.78-.28,1.59-.42,2.42-.42.53,0,1.06.06,1.6.17Z"/>
        <path class="cls-2" d="M407.45,403c.26-.99.12-1.95-.41-2.85-.53-.9-1.3-1.49-2.29-1.74-.99-.26-1.95-.12-2.85.41-.9.53-1.49,1.3-1.74,2.29-.26.99-.12,1.95.41,2.85.53.9,1.3,1.49,2.29,1.74.33.08.65.13.96.13.65,0,1.28-.18,1.89-.53.9-.53,1.48-1.3,1.74-2.29Z"/>
        <path class="cls-2" d="M401.58,408.19h0c-.84-.22-1.62-.13-2.32.27-.71.4-1.19,1.05-1.41,1.92l-5.26,20.18c-.22.84-.12,1.63.3,2.34.42.71,1.05,1.18,1.9,1.4.3.08.6.12.88.12.53,0,1.03-.14,1.49-.42.69-.42,1.15-1.06,1.37-1.9l5.26-20.18c.23-.87.14-1.66-.27-2.36-.41-.69-1.05-1.16-1.92-1.38Z"/>
        <path class="cls-2" d="M432.17,424.53c-.4-2.12-1.31-3.95-2.72-5.45-1.4-1.49-3.19-2.6-5.34-3.31-2.06-.68-4.09-.85-6.05-.49-.59.11-1.16.26-1.73.46.04-.53-.06-1.03-.29-1.5-.36-.72-.97-1.22-1.83-1.51-.82-.27-1.61-.24-2.33.12-.74.35-1.25.97-1.54,1.83l-6.58,19.84c-.27.83-.23,1.62.14,2.35.37.74.97,1.25,1.8,1.52.86.28,1.66.24,2.38-.14.71-.38,1.22-.98,1.49-1.8l4.16-12.54c.32-.97.85-1.72,1.62-2.29.78-.58,1.71-.95,2.77-1.1,1.07-.15,2.18-.04,3.32.34,1.26.42,2.3,1.03,3.11,1.82.78.77,1.3,1.73,1.54,2.87.24,1.15.1,2.53-.42,4.09l-3.63,10.94c-.27.83-.23,1.62.14,2.35.37.74.97,1.25,1.8,1.52.35.12.7.17,1.03.17.46,0,.9-.11,1.32-.32.74-.37,1.25-.97,1.52-1.8l3.63-10.94c.85-2.56,1.08-4.92.69-7.03Z"/>
      </g>
    </g>
  </g>
</svg>