<?xml version="1.0" encoding="UTF-8"?>
<svg id="Layer_1" data-name="Layer 1" xmlns="http://www.w3.org/2000/svg" viewBox="0 0 723.73 112.17">
  <defs>
    <style>
      .cls-1 {
        fill: #0546c7;
      }
    </style>
  </defs>
  <path class="cls-1" d="M134.41,25.7c-2.38-.18-6.4.47-8.32,1-.4.11-.74-.31-.55-.68.76-1.47,2.57-3.3,3.66-6.41,2.47-7.04,5.79-11.01,6.44-11.96.05-.08.11-.33.11-.44l-.03-3.28-.74.3c-1.16.44-2.29.91-3.39,1.38-1.77.74-3.43,1.44-5.17,1.99-.33.1-.47-.06-.95-.2-5.68-1.71-12.9-4.36-26.2,7.33-.5.44-6,2.87-7.19-1.36-.3-1.07-.27-2.11-.24-3.22.02-.66.04-1.34,0-2.05-.17-2.35-1.26-4.46-3.07-5.96-2-1.64-4.67-2.39-7.34-2.07-4.6.57-8.52,1.99-12.47,3.52-7.79,3.02-15.64,5.28-23.32,6.73-12.25,2.3-33.03,2.76-44.46.97L0,11.12s-.24,2.56,2.32,3.53c2.56.97,15.38,2.6,19.83,3.05l1.45.15c29.69,3.24,45.02-3.57,53.25-7.22.27-.12.53-.24.79-.36.57-.26,1.1-.51,1.6-.68,1.35-.45,2.48-.45,3.38.02,1.36.71,1.98,2.36,2.33,3.54.96,3.27,2.39,6.9,7.13,8.49,6.57,2.21,13.67-2.02,17.91-4.54.35-.21.69-.41,1-.59,2.59-1.52,9.06-2.98,13,.35-.07,4.23-2.73,7.73-4.32,9.82l-.12.16c-.13.16-.19.37-.18.58l.19,6.26.16.24c.73,1.11,4.04.28,4.93-.03,3.29-1.14,14.26-1.99,18.56.99,5.95,4.12,5.97,10.79,6.01,20.88,0,1.82.01,3.75.05,5.79.16,7.57.3,14.71,1.7,20.08,0,.02.02.07-.05.1-.07.03-.1,0-.12-.03-1.89-2.5-3.52-6.08-5.12-11.26-.69-2.24-1.35-5.28-1.99-8.23-1.09-4.99-2.11-9.71-3.39-11.52-4.29-6.07-10.08-5.09-15.18-3.7-.77.21-1.48.45-2.18.69-3.38,1.16-6.04,2.07-11.13-2.29,0,0-3.16-2.8-5.14-1.18-6.83,5.59-20.86,12.38-33.57,18-4.45,1.97-8.65,3.83-12.06,5.48l-.08.04c-.63.31-1.24.6-1.83.89,8.11-7.97,24.9-27.72,25.01-27.87.2-.28.3-.5.37-.76.02-.07,0-9.43-.45-9.87-.81-.8-3.6,1.41-3.6,1.41-1.52,1.21-5.07,4.05-9.19,3.45-2.75-.41-5.31-2.29-7.61-5.61-.2-.29-.55-.44-.9-.4,0,0-1.46.3-1.55,5.38-.09,5.02,5.3,9.71,10.5,8.34.45-.12.78.4.48.75-12.2,14.4-38.77,30.9-54.89,34.8l-1.42.34s1.63,2.03,4.27,2.2c.33.04,15.93-.67,22.97-2.31.46-.11.76.46.42.78-9.84,9.28-19.83,24.54-22.15,28.77-1.55,2.83-.17,4.15-.17,4.15l.84-.9c5.21-5.56,16.85-16.23,25.17-23.12,6.79-5.62,13.39-10.34,19.99-14.41,1.92-1.16,6.71-3.68,12.27-6.61,9.1-4.79,20.42-10.76,24.26-13.45.86-.6,1.23-.71,1.56-.81.2-.05.57.21.9.45.16.11.31.23.47.32,4.81,2.98,11.5,2.96,19.03.52,16.24-5.25,8.43,35.29,37.26,55.04,2.39,1.64,3.99,2.51,5.39,2.86,1.18.3,2.63-.08,3.6-.71-34.13-27.88,2.17-82.69-37.54-85.66Z"/>
  <g>
    <path class="cls-1" d="M213.4,54.32c-2.49-.26-4.41-.7-5.71-1.33-1.26-.61-2.13-1.33-2.59-2.13-.46-.82-.7-1.69-.7-2.58,0-1.76.72-3.02,2.21-3.87,1.56-.89,3.54-1.32,5.85-1.29,1.31,0,2.46.18,3.42.53.96.35,1.8.84,2.5,1.46.71.62,1.32,1.39,1.81,2.29.42.73,1.06,1.24,1.91,1.51.87.27,1.69.17,2.44-.3.69-.44,1.09-1.07,1.19-1.86.1-.76-.12-1.56-.63-2.37-.84-1.38-1.85-2.6-3-3.61-1.15-1.02-2.52-1.83-4.07-2.41-1.54-.57-3.36-.87-5.42-.87-2.61,0-5.01.41-7.14,1.21-2.16.82-3.89,2.03-5.16,3.6-1.28,1.59-1.93,3.55-1.93,5.82,0,3.09,1.23,5.72,3.67,7.81,2.4,2.06,5.72,3.31,9.87,3.71,2.98.31,5.14,1.13,6.41,2.41,1.26,1.28,1.9,2.73,1.9,4.32,0,1.25-.37,2.3-1.1,3.14-.76.87-1.78,1.54-3.02,2-1.27.47-2.67.71-4.18.71-1.35,0-2.65-.21-3.87-.61-1.22-.41-2.27-.94-3.12-1.6-.84-.64-1.44-1.34-1.8-2.08-.34-.72-.85-1.26-1.52-1.63-.68-.37-1.38-.48-2.08-.32-.96.19-1.67.66-2.08,1.37-.43.74-.45,1.54-.05,2.37.68,1.61,1.77,3.04,3.24,4.27,1.45,1.22,3.18,2.17,5.13,2.85,1.95.67,4.02,1.01,6.17,1.01,1.81,0,3.58-.24,5.28-.71,1.71-.47,3.25-1.2,4.59-2.17,1.35-.98,2.44-2.2,3.24-3.63.81-1.45,1.22-3.17,1.22-5.11,0-3.38-1.16-6.14-3.44-8.22-2.26-2.05-5.42-3.3-9.41-3.7Z"/>
    <path class="cls-1" d="M248.78,50.4c-1.66-.76-3.52-1.15-5.52-1.15-2.67,0-5.07.61-7.14,1.81-2.07,1.2-3.72,2.9-4.91,5.03-1.18,2.13-1.78,4.6-1.78,7.33s.61,5.1,1.81,7.21c1.2,2.12,2.89,3.82,5,5.06,2.12,1.24,4.56,1.86,7.26,1.86,3.66,0,6.76-1.16,9.21-3.44.57-.57.82-1.23.73-1.96-.08-.7-.45-1.33-1.11-1.88-.53-.45-1.16-.64-1.84-.58-.66.06-1.3.34-1.9.83-.67.55-1.42.96-2.22,1.21-.82.26-1.79.39-2.87.39-1.64,0-3.09-.38-4.31-1.13-1.23-.75-2.2-1.79-2.89-3.08-.69-1.3-1.05-2.81-1.05-4.48,0-1.78.34-3.34,1.02-4.64.67-1.29,1.62-2.3,2.82-3.02,1.2-.72,2.6-1.08,4.17-1.08,2.24,0,4.14.81,5.65,2.41.53.53,1.13.86,1.78,1,.7.15,1.34,0,1.92-.4.69-.5,1.12-1.09,1.28-1.77.17-.72-.04-1.42-.6-2.07-1.32-1.52-2.83-2.68-4.5-3.45Z"/>
    <path class="cls-1" d="M277.55,51.06h0c-2.1-1.2-4.54-1.81-7.24-1.81s-5.18.61-7.28,1.81c-2.11,1.21-3.78,2.89-4.98,5.01-1.2,2.12-1.81,4.59-1.81,7.36s.61,5.19,1.81,7.31c1.2,2.12,2.88,3.81,4.98,5.01,2.1,1.2,4.55,1.81,7.28,1.81s5.19-.61,7.28-1.81c2.1-1.2,3.77-2.89,4.96-5.01,1.19-2.12,1.79-4.58,1.79-7.31s-.61-5.24-1.81-7.36c-1.2-2.12-2.88-3.8-4.98-5.01ZM278.52,63.43c0,1.71-.35,3.24-1.05,4.53-.69,1.29-1.66,2.32-2.89,3.05h0c-1.22.74-2.66,1.11-4.27,1.11s-3.04-.37-4.27-1.11c-1.23-.74-2.21-1.77-2.92-3.06-.71-1.29-1.07-2.82-1.07-4.53s.36-3.24,1.07-4.56c.71-1.31,1.69-2.34,2.92-3.08,1.22-.74,2.66-1.11,4.27-1.11s3.04.37,4.27,1.11c1.23.74,2.2,1.77,2.89,3.08.7,1.32,1.05,2.85,1.05,4.56Z"/>
    <path class="cls-1" d="M292.11,49.45c-.85,0-1.58.28-2.14.83-.58.56-.87,1.29-.87,2.18v21.89c0,.86.29,1.58.86,2.15.57.57,1.29.86,2.15.86s1.63-.29,2.18-.87c.55-.57.83-1.29.83-2.14v-21.89c0-.89-.28-1.62-.84-2.17-.55-.56-1.28-.84-2.17-.84Z"/>
    <path class="cls-1" d="M292.11,38.57c-1.02,0-1.91.37-2.64,1.11s-1.11,1.62-1.11,2.64.37,1.91,1.11,2.64c.73.73,1.62,1.11,2.64,1.11s1.91-.37,2.64-1.11c.73-.73,1.11-1.62,1.11-2.64s-.37-1.91-1.11-2.64c-.73-.73-1.62-1.11-2.64-1.11Z"/>
    <path class="cls-1" d="M309.82,71.44h-1.23c-.54,0-.97-.3-1.34-.93-.41-.71-.62-1.63-.62-2.75v-26.86c0-.86-.28-1.57-.84-2.13-.56-.56-1.27-.84-2.13-.84s-1.57.28-2.13.84c-.56.55-.84,1.27-.84,2.13v26.86c0,1.84.33,3.49.98,4.91.66,1.44,1.59,2.59,2.77,3.43,1.19.84,2.58,1.27,4.13,1.27h.1c1.09,0,2-.27,2.71-.79.76-.56,1.14-1.29,1.14-2.17s-.25-1.55-.74-2.11c-.51-.57-1.17-.86-1.97-.86Z"/>
    <path class="cls-1" d="M361.38,55.95c1.1-.71,2.01-1.6,2.71-2.65.92-1.38,1.39-2.94,1.39-4.63,0-2.09-.51-3.96-1.53-5.58-1.01-1.61-2.42-2.89-4.18-3.79-1.75-.9-3.81-1.36-6.11-1.36h-11.76c-.85,0-1.58.29-2.17.85-.59.57-.89,1.32-.89,2.21v33.31c0,.86.3,1.59.89,2.17.59.59,1.32.89,2.18.89h12.79c2.53,0,4.81-.52,6.78-1.56,1.97-1.04,3.54-2.48,4.65-4.29,1.11-1.81,1.67-3.92,1.67-6.27,0-2.6-.7-4.75-2.09-6.38-1.13-1.33-2.59-2.31-4.32-2.92ZM344.96,53.73v-10.06h8.7c1.75,0,3.19.42,4.3,1.25,1.07.81,1.59,2.04,1.59,3.76s-.54,2.97-1.6,3.78c-1.1.84-2.55,1.27-4.29,1.27h-8.7ZM361.86,65.25c0,1.41-.3,2.59-.9,3.52s-1.44,1.65-2.49,2.13c-1.08.49-2.35.74-3.78.74h-9.73v-12.18h9.73c1.44,0,2.71.23,3.79.67,1.05.44,1.89,1.08,2.49,1.92.59.83.89,1.9.89,3.2Z"/>
    <path class="cls-1" d="M393.33,50.71c-1.86-1-3.98-1.51-6.31-1.51s-4.29.5-6.1,1.49c-.63.34-1.22.74-1.76,1.17v-10.92c0-.89-.28-1.62-.84-2.17-.56-.56-1.29-.84-2.18-.84s-1.58.28-2.15.83c-.57.56-.86,1.29-.86,2.18v33.45c0,.86.29,1.58.86,2.15.57.57,1.29.86,2.15.86s1.62-.29,2.18-.87c.55-.57.83-1.29.83-2.14v-13.87c0-1.1.3-2.09.89-2.94.6-.86,1.43-1.56,2.47-2.08,1.03-.52,2.22-.78,3.51-.78,1.42,0,2.7.27,3.79.81,1.07.53,1.93,1.35,2.57,2.43.64,1.1.97,2.55.97,4.32v12.1c0,.86.29,1.58.86,2.15.57.57,1.29.86,2.15.86s1.58-.29,2.15-.86c.57-.57.86-1.29.86-2.15v-12.1c0-2.8-.54-5.2-1.61-7.13-1.08-1.95-2.57-3.44-4.43-4.45Z"/>
    <path class="cls-1" d="M424.31,50.19c-1.05-.69-2.62-1.04-4.68-1.04s-3.95.48-5.66,1.44c-.77.43-1.48.94-2.11,1.51-.05-.81-.3-1.45-.75-1.9-.51-.51-1.25-.76-2.2-.76s-1.65.27-2.17.79c-.52.52-.79,1.25-.79,2.17v21.99c0,.96.27,1.7.79,2.21.52.5,1.25.76,2.17.76s1.7-.27,2.21-.79c.5-.52.76-1.25.76-2.17v-14.37c0-1.36.44-2.5,1.31-3.39.89-.91,2.14-1.54,3.71-1.88,1.59-.35,3.43-.31,5.44.1.49.11.95.13,1.38.05.45-.08.85-.28,1.2-.58.36-.32.6-.76.72-1.31.2-.76.13-1.88-1.32-2.83Z"/>
    <path class="cls-1" d="M448.33,51.02c-1.91-1.18-4.21-1.77-6.86-1.77s-5.07.61-7.14,1.81c-2.07,1.21-3.71,2.89-4.88,5.01-1.17,2.11-1.76,4.59-1.76,7.35s.63,5.2,1.86,7.31c1.24,2.12,2.98,3.81,5.16,5.01,2.18,1.2,4.7,1.81,7.5,1.81,1.56,0,3.21-.29,4.91-.86,1.71-.57,3.15-1.33,4.3-2.24.69-.53,1.02-1.19.98-1.95-.04-.73-.4-1.39-1.06-1.98-.5-.42-1.11-.63-1.82-.63h-.02c-.68.02-1.31.24-1.88.67-.62.46-1.44.88-2.45,1.23-1,.35-2,.54-2.96.54-1.78,0-3.37-.39-4.72-1.16-1.36-.77-2.44-1.83-3.21-3.16-.42-.72-.73-1.5-.92-2.34h18.1c.79,0,1.45-.25,1.97-.76.53-.51.79-1.15.79-1.91,0-2.65-.51-5.03-1.5-7.08-1.01-2.06-2.48-3.7-4.39-4.88ZM433.42,60.71c.16-.67.39-1.31.68-1.91.64-1.33,1.6-2.4,2.84-3.16,1.24-.77,2.77-1.15,4.53-1.15,1.53,0,2.85.35,3.91,1.05,1.07.7,1.9,1.67,2.48,2.87.34.7.59,1.47.74,2.3h-15.17Z"/>
    <path class="cls-1" d="M486.52,63.02c-.06-2.5-.69-4.8-1.86-6.83-1.23-2.13-2.93-3.84-5.03-5.08-2.1-1.24-4.51-1.86-7.14-1.86s-5.05.63-7.16,1.86c-2.12,1.24-3.82,2.94-5.05,5.08-1.24,2.13-1.86,4.57-1.86,7.24s.57,5.08,1.71,7.2c1.13,2.12,2.71,3.82,4.68,5.06,1.97,1.24,4.23,1.87,6.71,1.87s4.74-.63,6.71-1.87c.83-.52,1.59-1.13,2.28-1.81v.53c0,.86.29,1.58.86,2.15.57.57,1.29.86,2.15.86s1.58-.29,2.15-.86c.57-.57.86-1.29.86-2.15v-11.38h0ZM480.69,63.43c0,1.65-.36,3.15-1.07,4.46-.71,1.31-1.69,2.35-2.92,3.11-1.22.75-2.64,1.13-4.21,1.13s-2.95-.38-4.19-1.13c-1.25-.75-2.25-1.8-2.97-3.11-.73-1.31-1.09-2.81-1.09-4.46s.37-3.19,1.09-4.51c.72-1.31,1.72-2.35,2.97-3.11,1.24-.75,2.65-1.13,4.19-1.13s2.99.38,4.21,1.13c1.23.76,2.21,1.8,2.92,3.11.71,1.31,1.07,2.83,1.07,4.51Z"/>
    <path class="cls-1" d="M510.19,50.4c-1.66-.76-3.52-1.15-5.52-1.15-2.67,0-5.07.61-7.14,1.81-2.07,1.2-3.72,2.9-4.91,5.03-1.18,2.13-1.78,4.6-1.78,7.33s.61,5.1,1.81,7.21c1.2,2.12,2.89,3.82,5.01,5.06,2.12,1.24,4.56,1.86,7.26,1.86,3.66,0,6.76-1.16,9.21-3.44.57-.57.82-1.23.73-1.96-.08-.7-.45-1.33-1.11-1.88-.53-.45-1.15-.64-1.84-.58-.66.06-1.3.34-1.9.83-.67.55-1.42.96-2.22,1.21-.82.26-1.79.39-2.87.39-1.64,0-3.09-.38-4.31-1.13-1.23-.76-2.2-1.79-2.89-3.08-.69-1.3-1.05-2.81-1.05-4.48,0-1.78.35-3.34,1.03-4.64.67-1.29,1.62-2.3,2.81-3.02,1.2-.72,2.6-1.08,4.17-1.08,2.24,0,4.14.81,5.65,2.41.53.53,1.13.86,1.78,1,.7.14,1.34,0,1.92-.4.69-.5,1.12-1.09,1.28-1.77.17-.72-.04-1.42-.6-2.07-1.32-1.52-2.83-2.68-4.5-3.45Z"/>
    <path class="cls-1" d="M543.62,47.34c1.24-1.32,2.7-2.38,4.35-3.13,1.63-.75,3.4-1.13,5.25-1.13,2.05,0,3.71.27,4.94.79,1.25.54,2.47,1.33,3.65,2.35.69.54,1.43.77,2.17.72.74-.06,1.38-.34,1.9-.82.55-.51.82-1.16.82-1.92,0-.34-.03-.62-.09-.88-.06-.27-.19-.55-.37-.81-.18-.25-.42-.5-.71-.72-1.87-1.54-3.77-2.66-5.63-3.33-1.87-.67-4.12-1.01-6.69-1.01-2.75,0-5.33.53-7.68,1.57-2.34,1.04-4.43,2.49-6.19,4.32-1.76,1.82-3.15,3.98-4.14,6.41-.99,2.43-1.49,5.08-1.49,7.89s.5,5.52,1.49,7.96c.99,2.44,2.38,4.61,4.14,6.43,1.76,1.83,3.85,3.27,6.21,4.29,2.36,1.02,4.94,1.54,7.65,1.54,2.28,0,4.48-.37,6.54-1.11,2.06-.73,4.03-1.84,5.87-3.31.31-.31.54-.65.7-1.02.16-.37.24-.76.24-1.15,0-.85-.25-1.54-.73-2.04-.48-.5-1.07-.78-1.77-.84-.68-.05-1.39.16-2.09.66-1.34.99-2.75,1.77-4.19,2.32-1.43.55-2.96.83-4.57.83-1.85,0-3.62-.37-5.25-1.11-1.64-.74-3.1-1.79-4.34-3.11-1.25-1.33-2.23-2.89-2.92-4.64-.69-1.75-1.05-3.66-1.05-5.69s.35-3.9,1.05-5.64c.69-1.75,1.68-3.31,2.92-4.64Z"/>
    <path class="cls-1" d="M592.19,50.71c-1.86-1-3.98-1.51-6.31-1.51s-4.29.5-6.09,1.49c-.63.34-1.22.74-1.77,1.17v-10.92c0-.89-.28-1.62-.84-2.17s-1.29-.84-2.18-.84-1.57.28-2.14.83c-.58.56-.87,1.29-.87,2.18v33.45c0,.86.29,1.58.86,2.15.57.57,1.29.86,2.15.86s1.63-.29,2.18-.87c.55-.57.83-1.29.83-2.14v-13.87c0-1.1.3-2.09.89-2.94.6-.86,1.43-1.56,2.47-2.08,1.03-.52,2.22-.78,3.51-.78,1.42,0,2.7.27,3.79.81,1.07.53,1.93,1.35,2.57,2.43.64,1.1.96,2.55.96,4.32v12.1c0,.86.29,1.58.86,2.15.57.57,1.29.86,2.15.86s1.58-.29,2.15-.86c.57-.57.86-1.29.86-2.15v-12.1c0-2.8-.54-5.2-1.61-7.13-1.08-1.95-2.57-3.44-4.43-4.45Z"/>
    <path class="cls-1" d="M612.94,71.44h-1.23c-.54,0-.97-.3-1.34-.93-.41-.71-.62-1.63-.62-2.75v-26.86c0-.86-.28-1.57-.84-2.13s-1.27-.84-2.13-.84-1.57.28-2.13.84c-.56.55-.84,1.27-.84,2.13v26.86c0,1.83.33,3.48.98,4.91.66,1.44,1.59,2.59,2.77,3.43,1.19.84,2.58,1.27,4.13,1.27h.1c1.09,0,2-.27,2.71-.79.76-.56,1.14-1.29,1.14-2.17s-.25-1.55-.74-2.11c-.51-.57-1.17-.86-1.97-.86Z"/>
    <path class="cls-1" d="M642.01,49.4c-.85,0-1.58.28-2.15.83-.57.56-.86,1.29-.86,2.18v13.87c0,1.07-.3,2.05-.9,2.91-.6.88-1.43,1.58-2.44,2.1-1.02.52-2.21.78-3.54.78-1.39,0-2.66-.27-3.77-.81-1.08-.53-1.95-1.35-2.59-2.45-.64-1.11-.96-2.56-.96-4.3v-12.1c0-.86-.29-1.58-.86-2.15-.57-.57-1.29-.86-2.15-.86s-1.58.29-2.15.86c-.57.57-.86,1.29-.86,2.15v12.1c0,2.79.54,5.19,1.61,7.13,1.08,1.95,2.57,3.45,4.43,4.46,1.85,1,3.98,1.51,6.31,1.51s4.34-.5,6.12-1.49c.64-.35,1.23-.76,1.78-1.2.1.61.37,1.15.82,1.59.57.57,1.29.86,2.15.86s1.63-.29,2.18-.87c.55-.57.83-1.29.83-2.14v-21.94c0-.89-.28-1.62-.84-2.17-.56-.56-1.29-.84-2.18-.84Z"/>
    <path class="cls-1" d="M678.81,63.02c-.06-2.5-.69-4.8-1.86-6.83-1.24-2.13-2.93-3.84-5.03-5.08-2.1-1.24-4.51-1.86-7.14-1.86s-5.05.63-7.17,1.86c-2.12,1.24-3.82,2.94-5.05,5.08-1.24,2.13-1.86,4.57-1.86,7.24s.57,5.08,1.71,7.2c1.13,2.12,2.71,3.82,4.68,5.06,1.97,1.24,4.23,1.87,6.71,1.87s4.74-.63,6.71-1.87c.83-.52,1.59-1.13,2.28-1.81v.53c0,.86.29,1.58.86,2.15.57.57,1.29.86,2.15.86s1.58-.29,2.15-.86c.57-.57.86-1.29.86-2.15v-11.38h0ZM672.99,63.43c0,1.64-.36,3.14-1.07,4.46-.71,1.31-1.69,2.35-2.92,3.11-1.22.75-2.64,1.13-4.21,1.13s-2.95-.38-4.19-1.13c-1.25-.75-2.25-1.8-2.97-3.11-.73-1.31-1.09-2.81-1.09-4.46s.37-3.19,1.09-4.51c.72-1.31,1.72-2.35,2.97-3.11,1.24-.75,2.65-1.13,4.19-1.13s2.99.38,4.21,1.13c1.23.76,2.21,1.8,2.92,3.11.71,1.32,1.07,2.83,1.07,4.51Z"/>
    <path class="cls-1" d="M687.46,38.57c-1.02,0-1.91.37-2.64,1.11s-1.11,1.62-1.11,2.64.37,1.91,1.11,2.64c.73.73,1.62,1.11,2.64,1.11s1.91-.37,2.64-1.11c.73-.73,1.11-1.62,1.11-2.64s-.37-1.91-1.11-2.64c-.73-.73-1.62-1.11-2.64-1.11Z"/>
    <path class="cls-1" d="M688,49.45c-.85,0-1.58.28-2.15.83-.57.56-.87,1.29-.87,2.18v21.89c0,.86.29,1.58.86,2.15.57.57,1.29.86,2.15.86s1.63-.29,2.18-.87c.55-.57.83-1.29.83-2.14v-21.89c0-.89-.28-1.62-.84-2.17-.55-.56-1.28-.84-2.17-.84Z"/>
    <path class="cls-1" d="M722.12,55.17c-1.07-1.95-2.56-3.44-4.43-4.45-1.86-1-3.98-1.51-6.31-1.51s-4.29.5-6.1,1.49c-.64.35-1.25.76-1.81,1.21-.1-.64-.36-1.18-.8-1.61-.55-.56-1.28-.84-2.17-.84s-1.58.28-2.15.83c-.57.56-.87,1.29-.87,2.18v21.94c0,.86.29,1.58.86,2.15.57.57,1.29.86,2.15.86s1.63-.29,2.18-.87c.55-.57.83-1.29.83-2.14v-13.87c0-1.1.3-2.09.89-2.94.6-.86,1.43-1.56,2.47-2.08,1.03-.52,2.22-.78,3.51-.78,1.42,0,2.7.27,3.79.81,1.07.53,1.93,1.35,2.57,2.43.64,1.1.97,2.55.97,4.32v12.1c0,.86.29,1.58.86,2.15.57.57,1.29.86,2.15.86s1.58-.29,2.15-.86c.57-.57.86-1.29.86-2.15v-12.1c0-2.8-.54-5.2-1.61-7.13Z"/>
  </g>
</svg>